<svg xmlns="http://www.w3.org/2000/svg" xmlns:xlink="http://www.w3.org/1999/xlink" viewBox="0 0 759 278"><defs><style>.cls-1{fill:#fff;}.cls-2{fill:url(#linear-gradient);}.cls-3{fill:url(#linear-gradient-2);}.cls-4{fill:url(#linear-gradient-3);}</style><linearGradient id="linear-gradient" x1="67.96" y1="589.66" x2="225.91" y2="585.77" gradientTransform="matrix(1, 0, 0, -1, 0, 664)" gradientUnits="userSpaceOnUse"><stop offset="0" stop-color="#ec6445"/><stop offset="0.47" stop-color="#ec6645"/><stop offset="0.64" stop-color="#ed6d45"/><stop offset="0.77" stop-color="#ef7844"/><stop offset="0.86" stop-color="#f28943"/><stop offset="0.95" stop-color="#f69f42"/><stop offset="1" stop-color="#f9b141"/></linearGradient><linearGradient id="linear-gradient-2" x1="67.24" y1="560.59" x2="225.19" y2="556.7" xlink:href="#linear-gradient"/><linearGradient id="linear-gradient-3" x1="65.94" y1="508.05" x2="223.89" y2="504.15" xlink:href="#linear-gradient"/></defs><title>logo_orange</title><g id="Layer_2" data-name="Layer 2"><g id="Layer_1-2" data-name="Layer 1"><path class="cls-1" d="M357,156.4a3.08,3.08,0,0,0-2.55,1.27,4.57,4.57,0,0,0-1,2.84v27.26a4.47,4.47,0,0,1-1.27,3.14,4.21,4.21,0,0,1-3.24,1.37h-8.23a4.21,4.21,0,0,1-3.24-1.37,4.47,4.47,0,0,1-1.27-3.14v-119a4.63,4.63,0,0,1,1.27-3.43A4.39,4.39,0,0,1,340.72,64h21a133.82,133.82,0,0,1,25.69,2.35,65.17,65.17,0,0,1,21,7.75,39.75,39.75,0,0,1,14.22,14.32q5.19,8.92,5.2,21.86t-5.2,21.77a40,40,0,0,1-14.22,14.22,65.16,65.16,0,0,1-21,7.74,133,133,0,0,1-25.69,2.36Zm.4-75.11a4,4,0,0,0-3.93,3.92v49.42a5.13,5.13,0,0,0,1,3.23,3.26,3.26,0,0,0,2.75,1.28h4.51a108.29,108.29,0,0,0,19-1.57,55.29,55.29,0,0,0,15.4-4.9,27.56,27.56,0,0,0,10.39-8.83,23.09,23.09,0,0,0,3.82-13.53,23.56,23.56,0,0,0-3.82-13.63,28.09,28.09,0,0,0-10.39-9,51.6,51.6,0,0,0-15.4-4.9,115.82,115.82,0,0,0-19-1.47Z"/><path class="cls-1" d="M457.4,64a4.39,4.39,0,0,1,3.23,1.28,4.63,4.63,0,0,1,1.28,3.43v119a4.48,4.48,0,0,1-1.28,3.14,4.2,4.2,0,0,1-3.23,1.37h-8a4.21,4.21,0,0,1-3.24-1.37,4.47,4.47,0,0,1-1.27-3.14v-119a4.63,4.63,0,0,1,1.27-3.43A4.39,4.39,0,0,1,449.36,64Z"/><path class="cls-1" d="M562.7,108a4.39,4.39,0,0,1,3.24,1.27,4.67,4.67,0,0,1,1.27,3.44v75.1a4.47,4.47,0,0,1-1.27,3.14,4.21,4.21,0,0,1-3.24,1.37h-8a4.19,4.19,0,0,1-3.23-1.37,4.48,4.48,0,0,1-1.28-3.14v-.39c0-1-.91-1.11-2.74-.19a81.66,81.66,0,0,1-11.57,4.9,39.65,39.65,0,0,1-12.55,2,45.15,45.15,0,0,1-17.06-3.24,42.2,42.2,0,0,1-23.54-22.94,44.68,44.68,0,0,1-3.53-18,44.14,44.14,0,0,1,3.53-17.74,42.17,42.17,0,0,1,23.54-23A45.33,45.33,0,0,1,523.29,106a41.64,41.64,0,0,1,9.51,1.08,59,59,0,0,1,8.92,2.84,26.1,26.1,0,0,1,6,3.14c1.37,1,2.19,1,2.45,0v-.39a4.67,4.67,0,0,1,1.28-3.44,4.36,4.36,0,0,1,3.23-1.27Zm-66.48,42a28.15,28.15,0,0,0,2.16,11.28,24.49,24.49,0,0,0,5.88,8.43,26.48,26.48,0,0,0,8.63,5.3,30,30,0,0,0,20.79,0,25.33,25.33,0,0,0,8.53-5.3,24,24,0,0,0,5.69-8.43A29.41,29.41,0,0,0,550,149.92a28.83,28.83,0,0,0-2.06-11.07,23.15,23.15,0,0,0-5.69-8.34,26.41,26.41,0,0,0-8.53-5.2,30,30,0,0,0-20.79,0,27.66,27.66,0,0,0-8.63,5.2,23.57,23.57,0,0,0-5.88,8.34A27.6,27.6,0,0,0,496.22,149.92Z"/><path class="cls-1" d="M592.71,108.15a3.73,3.73,0,0,1,3.13,2.75l19,51c.65,1.44,1.2,2.12,1.66,2.06s1-.89,1.67-2.45l19.22-50.6a3.73,3.73,0,0,1,3.14-2.75c1.43-.12,2.74-.19,3.92-.19h7.65a2.72,2.72,0,0,1,2.94,1.86,5,5,0,0,1-.2,3.63L609.77,235a3.77,3.77,0,0,1-3.24,2.75c-1.5.13-2.84.2-4,.2h-7.84c-1.57,0-2.52-.63-2.85-1.87a6.28,6.28,0,0,1,.1-3.62L604.86,198a26.92,26.92,0,0,0,1.57-6.27,11.11,11.11,0,0,0-.78-4.91l-27.26-73.34a5,5,0,0,1-.2-3.63,2.73,2.73,0,0,1,2.95-1.86h7.64C590,108,591.27,108,592.71,108.15Z"/><path class="cls-1" d="M667.81,90.11a8.19,8.19,0,0,1,2.55-6.17,8.87,8.87,0,0,1,12.26,0,8.37,8.37,0,0,1,2.45,6.17,8.46,8.46,0,0,1-2.45,6.08,8.68,8.68,0,0,1-14.81-6.08ZM680.56,108a4.38,4.38,0,0,1,3.23,1.27,4.67,4.67,0,0,1,1.28,3.44v75.1a4.48,4.48,0,0,1-1.28,3.14,4.2,4.2,0,0,1-3.23,1.37h-8.24a4.19,4.19,0,0,1-3.23-1.37,4.43,4.43,0,0,1-1.28-3.14v-75.1a4.63,4.63,0,0,1,1.28-3.44,4.36,4.36,0,0,1,3.23-1.27Z"/><path class="cls-1" d="M697.62,112.47a4.4,4.4,0,0,1,1.27-3.24,4.65,4.65,0,0,1,3.44-1.27h14.9q2.55,0,2.55-1.77V68.74a4.63,4.63,0,0,1,1.27-3.43A4.39,4.39,0,0,1,724.29,64h8a4.39,4.39,0,0,1,3.23,1.28,4.63,4.63,0,0,1,1.28,3.43v37.45q0,1.77,2.55,1.77h15.1a4.48,4.48,0,0,1,3.14,1.27,4.26,4.26,0,0,1,1.37,3.24v8a4.24,4.24,0,0,1-1.37,3.24,4.48,4.48,0,0,1-3.14,1.27H740.76a8.2,8.2,0,0,0-3.14.39,1.41,1.41,0,0,0-.78,1.37v61a4.48,4.48,0,0,1-1.28,3.14,4.2,4.2,0,0,1-3.23,1.37h-8a4.21,4.21,0,0,1-3.24-1.37,4.47,4.47,0,0,1-1.27-3.14v-61c0-1.17-1.31-1.76-3.92-1.76H702.33a4.65,4.65,0,0,1-3.44-1.27,4.39,4.39,0,0,1-1.27-3.24Z"/><circle class="cls-1" cx="139" cy="139" r="139"/><g id="Layer_1-2-2" data-name="Layer 1-2"><path class="cls-2" d="M115.38,66.83,79,92.67V72.29c0-13.4,14-18.67,23.21-13.24Z"/><polygon class="cls-3" points="146.49 85.22 79 133.16 79 111.77 130.05 75.51 146.49 85.22"/><path class="cls-4" d="M215.05,152.23,102.21,218.91A15.37,15.37,0,0,1,79,205.67V152.24l82.16-58.35h0L215,125.76a15.37,15.37,0,0,1,0,26.47Z"/></g><path class="cls-1" d="M338.08,215.77a.46.46,0,0,1,.39.34l2.32,6.23c.08.17.15.26.21.25s.12-.11.2-.3l2.35-6.18a.45.45,0,0,1,.38-.34l.48,0h.93c.2,0,.32.07.36.23a.61.61,0,0,1,0,.44l-5.51,14.86a.45.45,0,0,1-.4.33l-.49,0h-1a.31.31,0,0,1-.34-.23.77.77,0,0,1,0-.45l1.58-4.21a3.13,3.13,0,0,0,.19-.77,1.29,1.29,0,0,0-.09-.6l-3.34-9a.61.61,0,0,1,0-.44.33.33,0,0,1,.36-.23h.93Z"/><path class="cls-1" d="M346.4,220.88a5.32,5.32,0,0,1,.43-2.17A5.13,5.13,0,0,1,348,217a5.25,5.25,0,0,1,1.72-1.11,5.77,5.77,0,0,1,4.17,0,5.31,5.31,0,0,1,1.71,1.11,5,5,0,0,1,1.15,1.7,5.49,5.49,0,0,1,.42,2.17,5.59,5.59,0,0,1-.42,2.19,5.06,5.06,0,0,1-1.15,1.7,5.29,5.29,0,0,1-1.71,1.1,5.63,5.63,0,0,1-4.17,0,5.12,5.12,0,0,1-2.88-2.8A5.42,5.42,0,0,1,346.4,220.88Zm2.08,0a3.32,3.32,0,0,0,.27,1.37,2.82,2.82,0,0,0,.72,1,3.15,3.15,0,0,0,1,.65,3.62,3.62,0,0,0,2.54,0,3,3,0,0,0,1-.65,2.9,2.9,0,0,0,.7-1,3.85,3.85,0,0,0,0-2.73,2.86,2.86,0,0,0-.7-1,3.12,3.12,0,0,0-1-.63,3.62,3.62,0,0,0-2.54,0,3.27,3.27,0,0,0-1,.63,2.78,2.78,0,0,0-.72,1A3.34,3.34,0,0,0,348.48,220.88Z"/><path class="cls-1" d="M360.8,220.9a3.28,3.28,0,0,0,.84,2.38,2.92,2.92,0,0,0,2.23.88,3,3,0,0,0,2.15-.83,3.15,3.15,0,0,0,.92-2.26V216.3a.54.54,0,0,1,.15-.38.5.5,0,0,1,.4-.17h1a.48.48,0,0,1,.39.17.51.51,0,0,1,.16.38v9.18a.57.57,0,0,1-.16.42.53.53,0,0,1-.39.15h-1a.57.57,0,0,1-.38-.13.52.52,0,0,1-.17-.37c0-.08,0-.13-.06-.13a.13.13,0,0,0-.11,0,5.46,5.46,0,0,1-5,.44,4.84,4.84,0,0,1-1.63-1.1,4.71,4.71,0,0,1-1.08-1.69,5.84,5.84,0,0,1-.38-2.18v-4.6a.54.54,0,0,1,.15-.38.51.51,0,0,1,.4-.17h1a.51.51,0,0,1,.4.17.54.54,0,0,1,.15.38Z"/><path class="cls-1" d="M377.05,217.86a4.84,4.84,0,0,0-1.4.19,3.4,3.4,0,0,0-1.17.59,3,3,0,0,0-.81,1,3.56,3.56,0,0,0-.34,1.49v4.36a.55.55,0,0,1-.15.38.51.51,0,0,1-.4.17h-1a.5.5,0,0,1-.4-.17.57.57,0,0,1-.16-.38v-9.18a.61.61,0,0,1,.16-.42.55.55,0,0,1,.4-.15h1a.57.57,0,0,1,.4.15.6.6,0,0,1,.15.42v.22c0,.11,0,.18.06.2s.1,0,.17,0a1.82,1.82,0,0,0,.29-.16,3.55,3.55,0,0,1,.39-.2,10.14,10.14,0,0,1,1.35-.44,5.78,5.78,0,0,1,1.46-.18.55.55,0,0,1,.38.15.54.54,0,0,1,.17.4v1a.52.52,0,0,1-.17.39A.57.57,0,0,1,377.05,217.86Z"/><path class="cls-1" d="M385.16,217.9a.69.69,0,0,0-.4-.07h-1.17a.57.57,0,0,1-.42-.15.58.58,0,0,1-.16-.4v-1a.58.58,0,0,1,.16-.4.57.57,0,0,1,.42-.15h1.32a.34.34,0,0,0,.24-.07.77.77,0,0,0,.07-.2,8.53,8.53,0,0,1,.44-2.16,5,5,0,0,1,.94-1.69,4,4,0,0,1,1.42-1.09,4.43,4.43,0,0,1,1.94-.4.56.56,0,0,1,.39.17.52.52,0,0,1,.16.38v1a.54.54,0,0,1-.16.4.58.58,0,0,1-.39.15,2.31,2.31,0,0,0-2,.87,3.93,3.93,0,0,0-.63,2.37.2.2,0,0,0,.09.19,1,1,0,0,0,.36.05H390a.58.58,0,0,1,.39.15.54.54,0,0,1,.16.4v1a.54.54,0,0,1-.16.4.58.58,0,0,1-.39.15h-2.32c-.21,0-.31.07-.31.22v7.45a.57.57,0,0,1-.16.38.48.48,0,0,1-.39.17h-1a.58.58,0,0,1-.55-.55v-7.28A.57.57,0,0,0,385.16,217.9Z"/><path class="cls-1" d="M401.39,215.75a.55.55,0,0,1,.4.15.61.61,0,0,1,.16.42v9.18a.57.57,0,0,1-.16.38.5.5,0,0,1-.4.17h-1a.48.48,0,0,1-.39-.17.52.52,0,0,1-.16-.38v-.05c0-.12-.11-.13-.34,0a9.63,9.63,0,0,1-1.41.6,4.81,4.81,0,0,1-1.53.24,5.44,5.44,0,0,1-2.09-.4,5.29,5.29,0,0,1-1.71-1.1,5.08,5.08,0,0,1-1.16-1.7,5.42,5.42,0,0,1-.43-2.19,5.32,5.32,0,0,1,.43-2.17,5,5,0,0,1,1.16-1.7,5.31,5.31,0,0,1,1.71-1.11,5.63,5.63,0,0,1,2.09-.39,5,5,0,0,1,1.16.13,6.6,6.6,0,0,1,1.09.35,3.23,3.23,0,0,1,.73.38q.26.19.3,0v-.05a.57.57,0,0,1,.16-.42.53.53,0,0,1,.39-.15Zm-8.12,5.13a3.49,3.49,0,0,0,.26,1.37,3.08,3.08,0,0,0,.72,1,3.29,3.29,0,0,0,1.06.65,3.58,3.58,0,0,0,1.27.23,3.62,3.62,0,0,0,1.27-.23,3.1,3.1,0,0,0,1-.65,2.75,2.75,0,0,0,.69-1,3.71,3.71,0,0,0,0-2.73,2.71,2.71,0,0,0-.69-1,3.22,3.22,0,0,0-1-.63,3.62,3.62,0,0,0-1.27-.23,3.58,3.58,0,0,0-1.27.23,3.43,3.43,0,0,0-1.06.63,3,3,0,0,0-.72,1A3.51,3.51,0,0,0,393.27,220.88Z"/><path class="cls-1" d="M411.48,220.88a3.72,3.72,0,0,0-.69-2.38,2.55,2.55,0,0,0-3.79,0,3.37,3.37,0,0,0-.74,2.26v4.77a.52.52,0,0,1-.16.38.48.48,0,0,1-.39.17h-1a.51.51,0,0,1-.4-.17.55.55,0,0,1-.15-.38v-9.18a.6.6,0,0,1,.15-.42.57.57,0,0,1,.4-.15h1a.49.49,0,0,1,.48.29.2.2,0,0,0,.18.14.65.65,0,0,0,.3-.12,6,6,0,0,1,1-.4,4.6,4.6,0,0,1,3.13.29,4.47,4.47,0,0,1,1.51,1.21c.13.08.28.05.46-.09a4.17,4.17,0,0,1,1.51-1.15,4.41,4.41,0,0,1,1.92-.41,4.41,4.41,0,0,1,3.39,1.5,4.9,4.9,0,0,1,1,1.7,6.54,6.54,0,0,1,.35,2.17v4.62a.58.58,0,0,1-.58.55h-1a.51.51,0,0,1-.4-.17.55.55,0,0,1-.15-.38v-4.62a3.67,3.67,0,0,0-.7-2.38,2.33,2.33,0,0,0-1.91-.86,2.4,2.4,0,0,0-1.91.86,3.56,3.56,0,0,0-.73,2.38v4.62a.53.53,0,0,1-.17.38.5.5,0,0,1-.38.17h-1a.48.48,0,0,1-.39-.17.52.52,0,0,1-.16-.38Z"/><path class="cls-1" d="M423.13,213.57a1,1,0,0,1,.31-.76,1,1,0,0,1,.74-.3,1,1,0,0,1,1.06,1.06,1,1,0,0,1-.3.74,1,1,0,0,1-.76.31,1.06,1.06,0,0,1-1.05-1.05Zm1.56,2.18a.53.53,0,0,1,.39.15.57.57,0,0,1,.16.42v9.18a.52.52,0,0,1-.16.38.48.48,0,0,1-.39.17h-1a.51.51,0,0,1-.4-.17.55.55,0,0,1-.15-.38v-9.18a.6.6,0,0,1,.15-.42.57.57,0,0,1,.4-.15Z"/><path class="cls-1" d="M429.53,210.38a.5.5,0,0,1,.39.16.54.54,0,0,1,.16.42V225.5a.52.52,0,0,1-.16.38.48.48,0,0,1-.39.17h-1a.48.48,0,0,1-.39-.17.52.52,0,0,1-.16-.38V211a.54.54,0,0,1,.16-.42.5.5,0,0,1,.39-.16Z"/><path class="cls-1" d="M432.83,213.57a1,1,0,0,1,.31-.76,1.05,1.05,0,0,1,.75-.3,1,1,0,0,1,1.05,1.06,1,1,0,0,1-.3.74,1,1,0,0,1-.75.31,1,1,0,0,1-.75-.31A1.05,1.05,0,0,1,432.83,213.57Zm1.56,2.18a.57.57,0,0,1,.4.15.6.6,0,0,1,.15.42v9.18a.55.55,0,0,1-.15.38.51.51,0,0,1-.4.17h-1a.48.48,0,0,1-.39-.17.52.52,0,0,1-.16-.38v-9.18a.57.57,0,0,1,.16-.42.53.53,0,0,1,.39-.15Z"/><path class="cls-1" d="M447.14,215.75a.53.53,0,0,1,.39.15.57.57,0,0,1,.16.42v9.18a.52.52,0,0,1-.16.38.48.48,0,0,1-.39.17h-1a.51.51,0,0,1-.4-.17.55.55,0,0,1-.15-.38v-.05c0-.12-.12-.13-.34,0a10.11,10.11,0,0,1-1.41.6,4.82,4.82,0,0,1-1.54.24,5.39,5.39,0,0,1-2.08-.4,5.22,5.22,0,0,1-1.72-1.1,5.33,5.33,0,0,1-1.59-3.89,5.33,5.33,0,0,1,1.59-3.87,5.25,5.25,0,0,1,1.72-1.11,5.57,5.57,0,0,1,2.08-.39,4.91,4.91,0,0,1,1.16.13,7,7,0,0,1,1.1.35,3.46,3.46,0,0,1,.73.38q.24.19.3,0v-.05a.6.6,0,0,1,.15-.42.57.57,0,0,1,.4-.15ZM439,220.88a3.32,3.32,0,0,0,.26,1.37,2.94,2.94,0,0,0,.72,1,3.15,3.15,0,0,0,1.05.65,3.62,3.62,0,0,0,1.27.23,3.58,3.58,0,0,0,1.27-.23,3,3,0,0,0,1-.65,2.9,2.9,0,0,0,.7-1,3.85,3.85,0,0,0,0-2.73,2.86,2.86,0,0,0-.7-1,3.12,3.12,0,0,0-1-.63,3.58,3.58,0,0,0-1.27-.23,3.62,3.62,0,0,0-1.27.23,3.27,3.27,0,0,0-1.05.63,2.9,2.9,0,0,0-.72,1A3.33,3.33,0,0,0,439,220.88Z"/><path class="cls-1" d="M455.72,217.86a4.84,4.84,0,0,0-1.4.19,3.4,3.4,0,0,0-1.17.59,3,3,0,0,0-.81,1,3.56,3.56,0,0,0-.34,1.49v4.36a.55.55,0,0,1-.15.38.51.51,0,0,1-.4.17h-1a.5.5,0,0,1-.4-.17.57.57,0,0,1-.16-.38v-9.18a.61.61,0,0,1,.16-.42.55.55,0,0,1,.4-.15h1a.57.57,0,0,1,.4.15.6.6,0,0,1,.15.42v.22c0,.11,0,.18.06.2s.1,0,.17,0a1.82,1.82,0,0,0,.29-.16,3.55,3.55,0,0,1,.39-.2,9.69,9.69,0,0,1,1.35-.44,5.78,5.78,0,0,1,1.46-.18.55.55,0,0,1,.38.15.54.54,0,0,1,.17.4v1a.52.52,0,0,1-.17.39A.57.57,0,0,1,455.72,217.86Z"/><path class="cls-1" d="M469.9,220.88a3.72,3.72,0,0,0-.69-2.38,2.33,2.33,0,0,0-1.92-.86,2.38,2.38,0,0,0-1.87.83,3.42,3.42,0,0,0-.74,2.26v4.77a.52.52,0,0,1-.16.38.48.48,0,0,1-.39.17h-1a.48.48,0,0,1-.39-.17.52.52,0,0,1-.16-.38v-9.18a.57.57,0,0,1,.16-.42.53.53,0,0,1,.39-.15h1a.49.49,0,0,1,.48.29c.05.09.11.14.18.14a.65.65,0,0,0,.3-.12,6.3,6.3,0,0,1,1-.4,4.47,4.47,0,0,1,1.17-.15,4.42,4.42,0,0,1,2,.44,4.67,4.67,0,0,1,1.51,1.21c.12.08.28.05.45-.09a4.25,4.25,0,0,1,1.51-1.15,4.41,4.41,0,0,1,1.92-.41,4.53,4.53,0,0,1,1.89.39A4.45,4.45,0,0,1,478,217a4.9,4.9,0,0,1,1,1.7,6.54,6.54,0,0,1,.35,2.17v4.62a.58.58,0,0,1-.58.55h-1a.48.48,0,0,1-.39-.17.52.52,0,0,1-.16-.38v-4.62a3.72,3.72,0,0,0-.69-2.38,2.36,2.36,0,0,0-1.92-.86,2.41,2.41,0,0,0-1.91.86,3.62,3.62,0,0,0-.73,2.38v4.62a.5.5,0,0,1-.17.38.48.48,0,0,1-.38.17h-1a.48.48,0,0,1-.4-.17.57.57,0,0,1-.16-.38Z"/><path class="cls-1" d="M480.9,220.88a5.37,5.37,0,0,1,.39-2,5.58,5.58,0,0,1,1.06-1.71A5.09,5.09,0,0,1,484,216a4.75,4.75,0,0,1,2-.43,5.12,5.12,0,0,1,2.42.59,5,5,0,0,1,1.79,1.66,5.53,5.53,0,0,1,.87,3.09.51.51,0,0,1-.16.41.55.55,0,0,1-.37.14l-7.31.05a.15.15,0,0,0-.16.11.38.38,0,0,0,0,.18,2.81,2.81,0,0,0,1.17,1.71,3.59,3.59,0,0,0,2,.63,3.37,3.37,0,0,0,1.53-.34,3.05,3.05,0,0,0,1.11-1,.51.51,0,0,1,.41-.26.72.72,0,0,1,.43.21l.74.55a.51.51,0,0,1,.23.4.65.65,0,0,1-.11.41,4.68,4.68,0,0,1-1.86,1.55,5.88,5.88,0,0,1-2.5.56,5.48,5.48,0,0,1-2.07-.39,5.3,5.3,0,0,1-1.7-1.1,5.44,5.44,0,0,1-1.17-1.69A5.54,5.54,0,0,1,480.9,220.88Zm7.43-1.47c.27,0,.37-.11.29-.33a1.79,1.79,0,0,0-1-1.08,4.14,4.14,0,0,0-1.56-.36,4.31,4.31,0,0,0-1.54.38,2,2,0,0,0-1,1.06.21.21,0,0,0,0,.23.3.3,0,0,0,.26.1Z"/><path class="cls-1" d="M502.66,210.38a.54.54,0,0,1,.4.16.57.57,0,0,1,.15.42V225.5a.55.55,0,0,1-.15.38.51.51,0,0,1-.4.17h-1a.48.48,0,0,1-.39-.17.52.52,0,0,1-.16-.38v-.05c0-.09-.1-.11-.26,0a5.28,5.28,0,0,1-3,.87,5.44,5.44,0,0,1-2.09-.4,5.14,5.14,0,0,1-2.87-2.8,5.42,5.42,0,0,1-.43-2.19,5.32,5.32,0,0,1,.43-2.17A5.13,5.13,0,0,1,494,217a5.31,5.31,0,0,1,1.71-1.11,5.63,5.63,0,0,1,2.09-.39,5.37,5.37,0,0,1,2.92.81c.13.08.22.11.28.09s.08-.13.08-.3V211a.54.54,0,0,1,.16-.42.5.5,0,0,1,.39-.16Zm-7.86,11.87a3.05,3.05,0,0,0,.71,1,3,3,0,0,0,1,.65,3.58,3.58,0,0,0,1.27.23,3.22,3.22,0,0,0,2.32-.88,3.1,3.1,0,0,0,.94-2.4,3.51,3.51,0,0,0-.25-1.36,2.88,2.88,0,0,0-1.72-1.65,3.65,3.65,0,0,0-1.29-.23,3.58,3.58,0,0,0-1.27.23,3.12,3.12,0,0,0-1,.63,3,3,0,0,0-.71,1,3.71,3.71,0,0,0,0,2.73Z"/><path class="cls-1" d="M505.63,213.57a1,1,0,0,1,.31-.76,1.05,1.05,0,0,1,.75-.3,1,1,0,0,1,1.05,1.06,1,1,0,0,1-.3.74,1,1,0,0,1-.75.31,1,1,0,0,1-.75-.31A1.05,1.05,0,0,1,505.63,213.57Zm1.56,2.18a.53.53,0,0,1,.39.15.57.57,0,0,1,.16.42v9.18a.52.52,0,0,1-.16.38.48.48,0,0,1-.39.17h-1a.48.48,0,0,1-.39-.17.52.52,0,0,1-.16-.38v-9.18a.57.57,0,0,1,.16-.42.53.53,0,0,1,.39-.15Z"/><path class="cls-1" d="M519.94,215.75a.53.53,0,0,1,.39.15.57.57,0,0,1,.16.42v9.18a.52.52,0,0,1-.16.38.48.48,0,0,1-.39.17h-1a.5.5,0,0,1-.4-.17.57.57,0,0,1-.16-.38v-.05c0-.12-.11-.13-.33,0a10.11,10.11,0,0,1-1.41.6,4.87,4.87,0,0,1-1.54.24,5.39,5.39,0,0,1-2.08-.4,5.22,5.22,0,0,1-1.72-1.1,5.33,5.33,0,0,1-1.59-3.89,5.33,5.33,0,0,1,1.59-3.87A5.25,5.25,0,0,1,513,215.9a5.57,5.57,0,0,1,2.08-.39,4.91,4.91,0,0,1,1.16.13,6.6,6.6,0,0,1,1.09.35,3,3,0,0,1,.73.38q.25.19.3,0v-.05a.61.61,0,0,1,.16-.42.55.55,0,0,1,.4-.15Zm-8.13,5.13a3.32,3.32,0,0,0,.27,1.37,2.82,2.82,0,0,0,.72,1,3.15,3.15,0,0,0,1.05.65,3.62,3.62,0,0,0,2.54,0,3,3,0,0,0,1-.65,2.9,2.9,0,0,0,.7-1,3.85,3.85,0,0,0,0-2.73,2.86,2.86,0,0,0-.7-1,3.12,3.12,0,0,0-1-.63,3.62,3.62,0,0,0-2.54,0,3.27,3.27,0,0,0-1.05.63,2.78,2.78,0,0,0-.72,1A3.34,3.34,0,0,0,511.81,220.88Z"/><path class="cls-1" d="M528.21,231.42a.51.51,0,0,1-.4-.16.57.57,0,0,1-.16-.42V216.3a.55.55,0,0,1,.16-.38.48.48,0,0,1,.4-.17h1a.51.51,0,0,1,.4.17.54.54,0,0,1,.15.38v0c0,.09.11.11.27,0a5.68,5.68,0,0,1,5.1-.46,5.08,5.08,0,0,1,1.71,1.1,5.26,5.26,0,0,1,1.17,1.7,5.59,5.59,0,0,1,.43,2.19,5.49,5.49,0,0,1-.43,2.17,5.26,5.26,0,0,1-2.88,2.81,5.57,5.57,0,0,1-2.08.39,5.43,5.43,0,0,1-2.93-.81q-.2-.12-.27-.09t-.09.3v5.15a.57.57,0,0,1-.15.42.54.54,0,0,1-.4.16Zm7.86-11.87a3.1,3.1,0,0,0-.71-1,3.2,3.2,0,0,0-1-.65,3.62,3.62,0,0,0-1.27-.23,3.25,3.25,0,0,0-2.33.88,3.13,3.13,0,0,0-.93,2.4,3.51,3.51,0,0,0,.25,1.36,2.94,2.94,0,0,0,.68,1,3.07,3.07,0,0,0,1,.63,3.66,3.66,0,0,0,1.3.23,3.62,3.62,0,0,0,1.27-.23,3.33,3.33,0,0,0,1-.63,3.16,3.16,0,0,0,.71-1,3.71,3.71,0,0,0,0-2.73Z"/><path class="cls-1" d="M542.06,210.38a.51.51,0,0,1,.39.16.57.57,0,0,1,.16.42V225.5a.57.57,0,0,1-.16.38.49.49,0,0,1-.39.17h-1a.48.48,0,0,1-.39-.17.52.52,0,0,1-.16-.38V211a.54.54,0,0,1,.16-.42.5.5,0,0,1,.39-.16Z"/><path class="cls-1" d="M554.92,215.75a.57.57,0,0,1,.4.15.6.6,0,0,1,.15.42v9.18a.55.55,0,0,1-.15.38.51.51,0,0,1-.4.17h-1a.51.51,0,0,1-.4-.17.55.55,0,0,1-.15-.38v-.05c0-.12-.11-.13-.34,0a9.63,9.63,0,0,1-1.41.6,4.81,4.81,0,0,1-1.53.24,5.44,5.44,0,0,1-2.09-.4,5.29,5.29,0,0,1-1.71-1.1,5.08,5.08,0,0,1-1.16-1.7,5.42,5.42,0,0,1-.44-2.19,5.33,5.33,0,0,1,.44-2.17,5,5,0,0,1,1.16-1.7A5.31,5.31,0,0,1,548,215.9a5.63,5.63,0,0,1,2.09-.39,5,5,0,0,1,1.16.13,6.92,6.92,0,0,1,1.09.35,3.23,3.23,0,0,1,.73.38q.25.19.3,0v-.05a.6.6,0,0,1,.15-.42.57.57,0,0,1,.4-.15Zm-8.12,5.13a3.49,3.49,0,0,0,.26,1.37,3.08,3.08,0,0,0,.72,1,3.29,3.29,0,0,0,1.06.65,3.58,3.58,0,0,0,1.27.23,3.62,3.62,0,0,0,1.27-.23,3.1,3.1,0,0,0,1-.65,2.87,2.87,0,0,0,.69-1,3.71,3.71,0,0,0,0-2.73,2.83,2.83,0,0,0-.69-1,3.22,3.22,0,0,0-1-.63,3.62,3.62,0,0,0-1.27-.23,3.58,3.58,0,0,0-1.27.23,3.43,3.43,0,0,0-1.06.63,3,3,0,0,0-.72,1A3.51,3.51,0,0,0,546.8,220.88Z"/><path class="cls-1" d="M558.59,215.77a.45.45,0,0,1,.38.34l2.33,6.23c.08.17.15.26.2.25s.13-.11.21-.3l2.34-6.18a.46.46,0,0,1,.39-.34l.48,0h.93a.33.33,0,0,1,.36.23.61.61,0,0,1,0,.44l-5.52,14.86a.45.45,0,0,1-.39.33l-.49,0h-1a.32.32,0,0,1-.35-.23.86.86,0,0,1,0-.45l1.59-4.21a3.67,3.67,0,0,0,.19-.77,1.46,1.46,0,0,0-.1-.6l-3.33-9a.61.61,0,0,1,0-.44c0-.16.16-.23.36-.23h.93Z"/><path class="cls-1" d="M566.91,220.88a5.35,5.35,0,0,1,.38-2,5.42,5.42,0,0,1,1.07-1.71A4.94,4.94,0,0,1,570,216a4.78,4.78,0,0,1,2-.43,4.94,4.94,0,0,1,4.22,2.25,5.61,5.61,0,0,1,.86,3.09.51.51,0,0,1-.16.41.53.53,0,0,1-.37.14l-7.31.05a.13.13,0,0,0-.15.11.23.23,0,0,0,0,.18,2.76,2.76,0,0,0,1.16,1.71,3.63,3.63,0,0,0,2,.63,3.33,3.33,0,0,0,1.52-.34,3,3,0,0,0,1.11-1,.52.52,0,0,1,.41-.26.72.72,0,0,1,.43.21l.74.55a.51.51,0,0,1,.23.4.65.65,0,0,1-.11.41,4.58,4.58,0,0,1-1.85,1.55,6,6,0,0,1-2.51.56,5.52,5.52,0,0,1-2.07-.39,5.41,5.41,0,0,1-1.7-1.1,5.25,5.25,0,0,1-1.16-1.69A5.37,5.37,0,0,1,566.91,220.88Zm7.42-1.47c.28,0,.37-.11.29-.33a1.78,1.78,0,0,0-1-1.08,4.23,4.23,0,0,0-1.56-.36,4.31,4.31,0,0,0-1.55.38,2,2,0,0,0-1,1.06.27.27,0,0,0,0,.23.31.31,0,0,0,.27.1Z"/><path class="cls-1" d="M584.71,217.86a4.88,4.88,0,0,0-1.4.19,3.26,3.26,0,0,0-1.16.59,2.92,2.92,0,0,0-.82,1,3.41,3.41,0,0,0-.33,1.49v4.36a.57.57,0,0,1-.16.38.5.5,0,0,1-.4.17h-1a.51.51,0,0,1-.4-.17.55.55,0,0,1-.15-.38v-9.18a.6.6,0,0,1,.15-.42.57.57,0,0,1,.4-.15h1a.55.55,0,0,1,.4.15.61.61,0,0,1,.16.42v.22c0,.11,0,.18,0,.2s.1,0,.17,0a1.82,1.82,0,0,0,.29-.16,3,3,0,0,1,.4-.2,9.55,9.55,0,0,1,1.34-.44,5.78,5.78,0,0,1,1.46-.18.55.55,0,0,1,.38.15.54.54,0,0,1,.17.4v1a.52.52,0,0,1-.17.39A.57.57,0,0,1,584.71,217.86Z"/></g></g></svg>